<?xml version="1.0" standalone="no"?>
<!DOCTYPE svg PUBLIC "-//W3C//DTD SVG 20010904//EN"
 "http://www.w3.org/TR/2001/REC-SVG-20010904/DTD/svg10.dtd">
<svg version="1.0" xmlns="http://www.w3.org/2000/svg"
 width="820.000000pt" height="116.000000pt" viewBox="0 0 820.000000 116.000000"
 preserveAspectRatio="xMidYMid meet">
<metadata>
Created by potrace 1.16, written by Peter Selinger 2001-2019
</metadata>
<g transform="translate(0.000000,116.000000) scale(0.100000,-0.100000)"
fill="#000000" stroke="none">
<path d="M0 1091 c0 -12 14 -48 30 -81 l30 -60 195 0 c243 0 280 -11 326 -102
35 -68 22 -157 -29 -212 -42 -44 -81 -56 -187 -56 -52 0 -95 -3 -95 -7 1 -5
52 -118 115 -253 l113 -245 93 -5 c72 -4 93 -2 97 9 3 7 -32 89 -78 182 -46
92 -82 170 -80 171 3 2 22 12 43 22 66 34 115 84 149 154 30 60 33 75 33 157
0 78 -4 97 -28 147 -34 69 -115 146 -183 172 -42 17 -82 20 -296 24 -247 4
-248 4 -248 -17z"/>
<path d="M793 1084 c-4 -11 83 -193 240 -503 187 -369 250 -486 264 -486 13 0
58 78 178 310 l160 309 3 -322 2 -322 90 0 90 0 0 509 c0 455 -2 510 -16 515
-9 3 -56 6 -105 6 -88 0 -90 -1 -107 -29 -9 -15 -78 -157 -152 -314 -74 -157
-138 -283 -142 -279 -4 4 -70 140 -148 302 -78 162 -147 301 -152 308 -7 8
-41 12 -105 12 -78 0 -95 -3 -100 -16z"/>
<path d="M7350 830 c-66 -22 -140 -96 -158 -157 -31 -103 -1 -216 73 -282 53
-47 98 -63 175 -63 74 -1 134 23 169 68 19 24 19 27 4 50 -19 29 -37 30 -70 4
-63 -49 -144 -44 -210 13 -85 75 -85 179 1 254 48 43 98 50 172 23 99 -36 99
-36 114 1 13 30 12 33 -16 56 -34 28 -113 53 -163 53 -20 -1 -61 -9 -91 -20z"/>
<path d="M2532 578 l3 -253 40 0 40 0 3 208 2 207 96 0 c87 0 97 -2 119 -25
27 -26 31 -51 14 -89 -13 -28 -43 -42 -112 -51 l-48 -6 18 -28 c10 -15 47 -69
83 -120 l65 -92 45 6 c25 4 48 10 52 13 3 4 -18 41 -48 82 -57 79 -62 90 -40
90 8 0 28 16 44 35 54 61 53 175 -2 230 -35 35 -87 45 -239 45 l-137 0 2 -252z"/>
<path d="M3123 823 c-10 -3 -13 -63 -13 -248 0 -212 2 -244 16 -249 25 -10 59
-7 72 6 17 17 17 469 0 486 -12 12 -52 15 -75 5z"/>
<path d="M3382 578 l3 -253 45 0 45 0 3 73 3 72 82 0 c146 0 217 57 217 174 0
85 -22 124 -90 159 -50 25 -62 27 -182 27 l-128 0 2 -252z m265 146 c21 -15
29 -31 31 -59 7 -77 -30 -105 -133 -105 l-65 0 0 96 0 96 70 -4 c50 -3 77 -9
97 -24z"/>
<path d="M3920 575 l0 -255 45 0 45 0 0 74 0 74 93 4 c118 4 163 24 195 88 27
54 28 111 3 165 -38 84 -88 104 -258 105 l-123 0 0 -255z m232 164 c47 -12 72
-54 62 -104 -10 -55 -35 -69 -125 -74 l-79 -3 0 96 0 96 53 0 c28 0 69 -5 89
-11z"/>
<path d="M4454 817 c-2 -7 -3 -118 -2 -247 l3 -235 160 0 160 0 0 40 0 40
-112 3 -113 3 0 204 0 205 -45 0 c-28 0 -48 -5 -51 -13z"/>
<path d="M4905 818 c-3 -8 -4 -121 -3 -253 l3 -240 180 0 180 0 0 40 0 40
-132 3 -133 3 0 59 0 59 118 3 117 3 3 38 3 37 -120 0 -121 0 0 65 0 65 131 0
130 0 -3 43 -3 42 -173 3 c-134 2 -174 0 -177 -10z"/>
<path d="M5422 578 l3 -253 40 0 40 0 3 185 3 185 82 -160 c65 -126 87 -161
104 -163 19 -3 32 16 102 155 l80 158 0 -177 1 -178 25 -6 c14 -3 36 -3 50 0
l25 6 -2 248 -3 247 -65 0 -65 0 -73 -147 -74 -146 -74 149 -74 149 -65 0 -65
0 2 -252z"/>
<path d="M6312 818 c-9 -12 -202 -481 -202 -492 0 -12 68 -5 79 7 6 7 46 94
90 192 l79 178 19 -39 c11 -21 48 -102 83 -179 35 -77 68 -146 74 -152 9 -10
21 -10 49 -2 20 5 37 14 37 18 0 17 -203 466 -214 473 -18 12 -83 9 -94 -4z"/>
<path d="M6692 788 l3 -43 72 -3 73 -3 2 -207 3 -207 40 0 40 0 3 207 2 207
73 3 72 3 3 43 3 42 -196 0 -196 0 3 -42z"/>
<path d="M7787 824 c-4 -4 -7 -117 -7 -250 l0 -244 25 -6 c14 -3 36 -3 50 0
25 6 25 8 25 106 l0 100 115 0 114 0 3 -97 3 -98 43 -3 42 -3 0 250 0 251 -45
0 -45 0 0 -110 0 -110 -115 0 -114 0 -3 108 -3 107 -40 3 c-23 2 -44 0 -48 -4z"/>
</g>
</svg>
