<svg xmlns="http://www.w3.org/2000/svg" fill="none" viewBox="0 0 134 30"><path fill="#B31F24" d="M40.627 13.496c3.034-1.256 4.158-2.953 4.158-5.051 0-3.662-3.125-5.292-8.25-5.292h-9.166c.575.895 1.125 1.857 1.125 3.3v7.27c-2.694.548-5.113 1.016-7.388 1.577-2.04-5.746-4.315-12.147-4.315-12.147h-5.7c.09.801.013 1.657-.406 2.82l-6.38 18.175s-.42 1.282-1.295 2.432h4.668c-.092-.628.026-1.457.183-1.965.47-1.43 1.739-2.378 3.086-2.993 1.752-.816 4.798-1.791 6.236-2.232l1.517 4.437s.615 1.67.288 2.753h6.59c-.994-1.377-1.334-2.406-1.334-2.432-.157-.428-1.02-2.887-2.131-5.988 2.013-.494 4.119-.908 6.38-1.363v6.455c0 1.243-.496 2.339-1.124 3.314h8.708c1.425 0 2.694-.08 3.648-.253 3.74-.669 6.42-2.62 6.42-6.776.013-3.18-2.079-5.078-5.518-6.04Zm-29.445 4.838c-.55.267-1.255.709-1.66 1.123 1.255-3.742 2.98-8.887 3.817-11.32l2.877 8.393c-1.451.428-3.687 1.15-5.034 1.804ZM33.58 6.08c.902-.053 1.229-.053 1.817-.053 2.812 0 4.119 1.203 4.119 2.9 0 1.617-1.046 2.62-2.785 3.154-.732.227-1.948.48-3.151.695V6.079Zm2.118 17.587h-2.105v-7.804c.784-.187 2.04-.415 2.863-.508 2.537.601 4.407 1.67 4.407 4.317-.013 3.087-2.223 3.995-5.165 3.995Z"/><path fill="#431512" d="M48.512 26.582c1.124-1.724 1.124-3.288 1.124-3.314V6.483c0-.027 0-1.577-1.124-3.315h7.361C54.75 4.906 54.75 6.456 54.75 6.482v16.786c0 .026 0 1.59 1.124 3.314h-7.361ZM130.912 10.09h-4.93c.419.695.249 1.804-.183 2.927l-3.19 8.7-3.308-8.7c-.445-1.123-.602-2.232-.183-2.927h-6.368c.876.949 1.425 2.165 1.739 2.927l5.479 13.564h4.262s.105-1.109.589-2.352l4.406-11.212c.301-.775.928-2.112 1.687-2.927ZM113.403 18.82c.314-3.448-.615-9.449-8.067-9.449-6.08 0-8.316 4.33-8.316 8.553 0 5.373 2.863 9.061 9.715 9.061 2.785 0 5.034-.842 6.367-1.67l-1.373-3.1c-1.294.667-2.876 1.255-4.641 1.255-3.06 0-4.943-1.095-5.348-4.196h6.616c2.432.014 4.406-.134 5.047-.454Zm-11.65-2.38c.301-2.659 1.464-4.008 3.583-4.008 2.196 0 3.281 1.737 3.373 3.982 0 0-.968.027-2.223.027h-4.733ZM68.465 26.58h6.525c-.994-1.524-.994-2.914-.994-2.927v-8.807c0-3.154-1.66-5.092-5.165-5.092-2.236 0-4.08 1.03-5.44 2.285v-1.95h-5.543c.994 1.536.994 2.913.994 2.926v10.624c0 .027 0 1.404-.994 2.927h6.537c-.993-1.523-.993-2.913-.993-2.927v-8.793c.836-.882 2.026-1.524 3.334-1.524 2 0 2.733 1.136 2.733 2.9v7.417c0 .027 0 1.404-.994 2.94ZM85.37 15.53c3.217 0 4.982 1.604 4.982 4.196 0 2.326-1.36 4.023-5.06 4.023h-2.21V15.53h2.288Zm-.484-9.529c2.812 0 4.12 1.123 4.12 3.234 0 2.099-1.178 3.355-3.884 3.355-.523 0-1.478.013-2.04 0V6h1.804Zm.589 20.581c1.425 0 2.746-.08 3.7-.254 3.674-.655 6.394-2.58 6.394-6.722 0-3.328-2.08-5.052-5.348-6.014 2.929-1.136 3.91-2.766 3.91-4.891 0-3.662-2.916-5.533-8.172-5.533h-8.787c.615.95.824 2.326.824 3.314v16.786c0 1.096-.196 2.245-.824 3.314h8.303Z"/></svg>