<svg width="125" height="50" viewBox="0 0 125 50" fill="none" xmlns="http://www.w3.org/2000/svg">
<g clip-path="url(#clip0_181_1200)">
<path d="M16.1927 10.9375C7.38201 10.9375 0.0400391 14.6654 0.0400391 25.9122C0.0400391 34.8222 4.97698 40.4332 16.4202 40.4332C29.8895 40.4332 30.7529 31.5845 30.7529 31.5845H24.2264C24.2264 31.5845 22.8271 36.3492 16.0221 36.3492C10.4796 36.3492 6.49327 32.6151 6.49327 27.3814H31.4354V24.0971C31.4354 18.9193 28.1395 10.9375 16.1927 10.9375V10.9375ZM15.9652 15.135C21.2411 15.135 24.8378 18.3584 24.8378 23.1896H6.63762C6.63762 18.0606 11.3323 15.135 15.9652 15.135V15.135Z" fill="#E53238"/>
<path d="M31.4312 0.043457V34.7817C31.4312 36.7536 31.29 39.5223 31.29 39.5223H37.5149C37.5149 39.5223 37.7384 37.5338 37.7384 35.7164C37.7384 35.7164 40.8139 40.5149 49.1764 40.5149C57.9824 40.5149 63.964 34.4176 63.964 25.682C63.964 17.5554 58.4697 11.0193 49.1906 11.0193C40.5013 11.0193 37.8012 15.6989 37.8012 15.6989V0.043457H31.4312ZM47.5838 15.316C53.5638 15.316 57.3665 19.7422 57.3665 25.682C57.3665 32.0514 52.9746 36.2182 47.6265 36.2182C41.2441 36.2182 37.8012 31.2482 37.8012 25.7387C37.8012 20.6049 40.8906 15.316 47.5838 15.316Z" fill="#0064D2"/>
<path d="M79.433 10.9375C66.1779 10.9375 65.3278 18.1758 65.3278 19.3324H71.9254C71.9254 19.3324 72.2713 15.1066 78.978 15.1066C83.336 15.1066 86.713 17.096 86.713 20.9207V22.282H78.978C68.7091 22.282 63.2803 25.278 63.2803 31.3576C63.2803 37.3408 68.2963 40.5963 75.0749 40.5963C84.313 40.5963 87.2889 35.5054 87.2889 35.5054C87.2889 37.5303 87.4454 39.5256 87.4454 39.5256H93.3106C93.3106 39.5256 93.0831 37.0523 93.0831 35.47V21.7928C93.0831 12.8248 85.83 10.9375 79.433 10.9375V10.9375ZM86.713 26.366V28.1811C86.713 30.5485 85.2482 36.4342 76.6247 36.4342C71.9025 36.4342 69.8779 34.0839 69.8779 31.3576C69.8779 26.3979 76.6961 26.366 86.713 26.366V26.366Z" fill="#F5AF02"/>
<path d="M89.5317 12.0659H96.954L107.606 33.349L118.234 12.0659H124.957L105.599 49.9565H98.5465L104.133 39.394L89.5317 12.0659Z" fill="#86B817"/>
</g>
<defs>
<clipPath id="clip0_181_1200">
<rect width="125" height="50" fill="white" transform="translate(-0.000976562)"/>
</clipPath>
</defs>
</svg>
